<svg xmlns="http://www.w3.org/2000/svg" xmlns:xlink="http://www.w3.org/1999/xlink" width="200" zoomAndPan="magnify" viewBox="0 0 150 74.999997" height="100" preserveAspectRatio="xMidYMid meet" version="1.0"><defs><g/></defs><g fill="#c4ab8d" fill-opacity="0.4"><g transform="translate(29.164081, 19.811695)"><g><path d="M 10.453125 -0.0117188 L 12.542969 -0.0117188 C 12.542969 -0.0117188 12.042969 -0.214844 11.5625 -1.425781 L 6.402344 -14.613281 L 1.234375 -1.425781 C 0.765625 -0.214844 0.253906 -0.0117188 0.253906 -0.0117188 L 1.335938 -0.0117188 C 1.335938 -0.0117188 1 -0.214844 1.46875 -1.425781 L 2.640625 -4.40625 L 9.15625 -4.40625 L 10.320312 -1.425781 C 10.796875 -0.214844 10.453125 -0.0117188 10.453125 -0.0117188 Z M 2.734375 -4.648438 L 5.894531 -12.734375 L 9.066406 -4.648438 Z M 2.734375 -4.648438 "/></g></g></g><g fill="#c4ab8d" fill-opacity="0.4"><g transform="translate(42.159505, 19.811695)"><g><path d="M 10.371094 -1.691406 L 1.917969 -14.613281 L 0.253906 -14.613281 C 0.253906 -14.613281 0.746094 -14.308594 0.746094 -13.265625 L 0.746094 -1.425781 C 0.746094 -0.214844 0.328125 -0.0117188 0.328125 -0.0117188 L 1.40625 -0.0117188 C 1.40625 -0.0117188 0.980469 -0.214844 0.980469 -1.425781 L 0.980469 -13.277344 C 0.980469 -13.519531 1 -13.726562 1.03125 -13.886719 C 1.140625 -13.726562 10.371094 -0.0117188 10.371094 -0.0117188 L 10.59375 -0.0117188 L 10.605469 -13.277344 C 10.605469 -14.488281 11.035156 -14.613281 11.035156 -14.613281 L 9.953125 -14.613281 C 9.953125 -14.613281 10.371094 -14.480469 10.371094 -13.265625 Z M 10.371094 -1.691406 "/></g></g></g><g fill="#c4ab8d" fill-opacity="0.4"><g transform="translate(53.646442, 19.811695)"><g><path d="M 3.507812 -14.613281 C 3.191406 -14.613281 0.253906 -14.613281 0.253906 -14.613281 C 0.253906 -14.613281 0.683594 -14.480469 0.683594 -13.265625 L 0.683594 -1.425781 C 0.683594 -0.214844 0.253906 -0.0117188 0.253906 -0.0117188 C 0.253906 -0.0117188 3.304688 -0.0117188 3.589844 -0.0117188 C 8.933594 -0.0117188 11.207031 -3.285156 11.207031 -7.300781 C 11.207031 -11.320312 9.167969 -14.613281 3.507812 -14.613281 Z M 3.203125 -0.457031 L 2.050781 -0.457031 C 1.976562 -0.664062 1.925781 -0.980469 1.925781 -1.425781 L 1.925781 -13.277344 C 1.925781 -13.726562 1.976562 -14.019531 2.050781 -14.226562 L 3.203125 -14.226562 C 8.546875 -14.226562 9.910156 -11.105469 9.910156 -7.332031 C 9.910156 -3.546875 8.484375 -0.457031 3.203125 -0.457031 Z M 3.203125 -0.457031 "/></g></g></g><g fill="#c4ab8d" fill-opacity="0.4"><g transform="translate(65.306655, 19.811695)"><g><path d="M 9.453125 -1.425781 L 6.832031 -5.730469 C 10.003906 -6.046875 11.269531 -7.636719 11.269531 -10.277344 C 11.269531 -12.941406 8.972656 -14.613281 6.300781 -14.613281 C 6.007812 -14.613281 0.253906 -14.613281 0.253906 -14.613281 C 0.253906 -14.613281 0.683594 -14.410156 0.683594 -13.195312 L 0.683594 -1.367188 C 0.683594 -0.152344 0.253906 -0.0117188 0.253906 -0.0117188 L 2.34375 -0.0117188 C 2.34375 -0.0117188 1.925781 -0.144531 1.925781 -1.355469 L 1.925781 -5.667969 C 1.925781 -5.667969 5.609375 -5.667969 5.617188 -5.667969 L 8.21875 -1.425781 C 8.953125 -0.214844 8.65625 -0.0117188 8.65625 -0.0117188 L 10.746094 -0.0117188 C 10.746094 -0.0117188 10.195312 -0.214844 9.453125 -1.425781 Z M 4.933594 -6.035156 L 1.925781 -6.035156 L 1.925781 -13.195312 C 1.925781 -13.644531 1.976562 -13.960938 2.050781 -14.164062 L 5.566406 -14.164062 C 7.65625 -14.164062 9.972656 -13.082031 9.972656 -10.25 C 9.972656 -6.71875 7.78125 -6.035156 4.933594 -6.035156 Z M 4.933594 -6.035156 "/></g></g></g><g fill="#c4ab8d" fill-opacity="0.4"><g transform="translate(77.028019, 19.811695)"><g><path d="M 5.617188 -7.136719 L 5.617188 -9.542969 C 5.617188 -9.542969 5.210938 -8.515625 3.171875 -8.515625 L 1.925781 -8.515625 L 1.925781 -13.277344 C 1.925781 -13.714844 1.976562 -14.019531 2.050781 -14.214844 L 4.546875 -14.214844 C 9.320312 -14.214844 9.882812 -12.675781 9.882812 -12.675781 L 9.464844 -14.621094 L 0.253906 -14.621094 C 0.253906 -14.621094 0.683594 -14.480469 0.683594 -13.265625 L 0.683594 -1.425781 C 0.683594 -0.214844 0.253906 -0.0117188 0.253906 -0.0117188 L 9.464844 -0.0117188 L 9.882812 -1.949219 C 9.882812 -1.949219 9.320312 -0.40625 4.546875 -0.40625 L 2.070312 -0.40625 C 1.988281 -0.621094 1.925781 -0.949219 1.925781 -1.425781 L 1.925781 -8.167969 L 3.171875 -8.167969 C 5.210938 -8.167969 5.617188 -7.136719 5.617188 -7.136719 Z M 5.617188 -7.136719 "/></g></g></g><g fill="#c4ab8d" fill-opacity="0.4"><g transform="translate(87.363205, 19.811695)"><g><path d="M 10.453125 -0.0117188 L 12.542969 -0.0117188 C 12.542969 -0.0117188 12.042969 -0.214844 11.5625 -1.425781 L 6.402344 -14.613281 L 1.234375 -1.425781 C 0.765625 -0.214844 0.253906 -0.0117188 0.253906 -0.0117188 L 1.335938 -0.0117188 C 1.335938 -0.0117188 1 -0.214844 1.46875 -1.425781 L 2.640625 -4.40625 L 9.15625 -4.40625 L 10.320312 -1.425781 C 10.796875 -0.214844 10.453125 -0.0117188 10.453125 -0.0117188 Z M 2.734375 -4.648438 L 5.894531 -12.734375 L 9.066406 -4.648438 Z M 2.734375 -4.648438 "/></g></g></g><g fill="#f4ebe2" fill-opacity="1"><g transform="translate(28.713364, 19.360977)"><g><path d="M 10.453125 -0.0117188 L 12.542969 -0.0117188 C 12.542969 -0.0117188 12.042969 -0.214844 11.5625 -1.425781 L 6.402344 -14.613281 L 1.234375 -1.425781 C 0.765625 -0.214844 0.253906 -0.0117188 0.253906 -0.0117188 L 1.335938 -0.0117188 C 1.335938 -0.0117188 1 -0.214844 1.46875 -1.425781 L 2.640625 -4.40625 L 9.15625 -4.40625 L 10.320312 -1.425781 C 10.796875 -0.214844 10.453125 -0.0117188 10.453125 -0.0117188 Z M 2.734375 -4.648438 L 5.894531 -12.734375 L 9.066406 -4.648438 Z M 2.734375 -4.648438 "/></g></g></g><g fill="#f4ebe2" fill-opacity="1"><g transform="translate(41.708788, 19.360977)"><g><path d="M 10.371094 -1.691406 L 1.917969 -14.613281 L 0.253906 -14.613281 C 0.253906 -14.613281 0.746094 -14.308594 0.746094 -13.265625 L 0.746094 -1.425781 C 0.746094 -0.214844 0.328125 -0.0117188 0.328125 -0.0117188 L 1.40625 -0.0117188 C 1.40625 -0.0117188 0.980469 -0.214844 0.980469 -1.425781 L 0.980469 -13.277344 C 0.980469 -13.519531 1 -13.726562 1.03125 -13.886719 C 1.140625 -13.726562 10.371094 -0.0117188 10.371094 -0.0117188 L 10.59375 -0.0117188 L 10.605469 -13.277344 C 10.605469 -14.488281 11.035156 -14.613281 11.035156 -14.613281 L 9.953125 -14.613281 C 9.953125 -14.613281 10.371094 -14.480469 10.371094 -13.265625 Z M 10.371094 -1.691406 "/></g></g></g><g fill="#f4ebe2" fill-opacity="1"><g transform="translate(53.195725, 19.360977)"><g><path d="M 3.507812 -14.613281 C 3.191406 -14.613281 0.253906 -14.613281 0.253906 -14.613281 C 0.253906 -14.613281 0.683594 -14.480469 0.683594 -13.265625 L 0.683594 -1.425781 C 0.683594 -0.214844 0.253906 -0.0117188 0.253906 -0.0117188 C 0.253906 -0.0117188 3.304688 -0.0117188 3.589844 -0.0117188 C 8.933594 -0.0117188 11.207031 -3.285156 11.207031 -7.300781 C 11.207031 -11.320312 9.167969 -14.613281 3.507812 -14.613281 Z M 3.203125 -0.457031 L 2.050781 -0.457031 C 1.976562 -0.664062 1.925781 -0.980469 1.925781 -1.425781 L 1.925781 -13.277344 C 1.925781 -13.726562 1.976562 -14.019531 2.050781 -14.226562 L 3.203125 -14.226562 C 8.546875 -14.226562 9.910156 -11.105469 9.910156 -7.332031 C 9.910156 -3.546875 8.484375 -0.457031 3.203125 -0.457031 Z M 3.203125 -0.457031 "/></g></g></g><g fill="#f4ebe2" fill-opacity="1"><g transform="translate(64.855938, 19.360977)"><g><path d="M 9.453125 -1.425781 L 6.832031 -5.730469 C 10.003906 -6.046875 11.269531 -7.636719 11.269531 -10.277344 C 11.269531 -12.941406 8.972656 -14.613281 6.300781 -14.613281 C 6.007812 -14.613281 0.253906 -14.613281 0.253906 -14.613281 C 0.253906 -14.613281 0.683594 -14.410156 0.683594 -13.195312 L 0.683594 -1.367188 C 0.683594 -0.152344 0.253906 -0.0117188 0.253906 -0.0117188 L 2.34375 -0.0117188 C 2.34375 -0.0117188 1.925781 -0.144531 1.925781 -1.355469 L 1.925781 -5.667969 C 1.925781 -5.667969 5.609375 -5.667969 5.617188 -5.667969 L 8.21875 -1.425781 C 8.953125 -0.214844 8.65625 -0.0117188 8.65625 -0.0117188 L 10.746094 -0.0117188 C 10.746094 -0.0117188 10.195312 -0.214844 9.453125 -1.425781 Z M 4.933594 -6.035156 L 1.925781 -6.035156 L 1.925781 -13.195312 C 1.925781 -13.644531 1.976562 -13.960938 2.050781 -14.164062 L 5.566406 -14.164062 C 7.65625 -14.164062 9.972656 -13.082031 9.972656 -10.25 C 9.972656 -6.71875 7.78125 -6.035156 4.933594 -6.035156 Z M 4.933594 -6.035156 "/></g></g></g><g fill="#f4ebe2" fill-opacity="1"><g transform="translate(76.577301, 19.360977)"><g><path d="M 5.617188 -7.136719 L 5.617188 -9.542969 C 5.617188 -9.542969 5.210938 -8.515625 3.171875 -8.515625 L 1.925781 -8.515625 L 1.925781 -13.277344 C 1.925781 -13.714844 1.976562 -14.019531 2.050781 -14.214844 L 4.546875 -14.214844 C 9.320312 -14.214844 9.882812 -12.675781 9.882812 -12.675781 L 9.464844 -14.621094 L 0.253906 -14.621094 C 0.253906 -14.621094 0.683594 -14.480469 0.683594 -13.265625 L 0.683594 -1.425781 C 0.683594 -0.214844 0.253906 -0.0117188 0.253906 -0.0117188 L 9.464844 -0.0117188 L 9.882812 -1.949219 C 9.882812 -1.949219 9.320312 -0.40625 4.546875 -0.40625 L 2.070312 -0.40625 C 1.988281 -0.621094 1.925781 -0.949219 1.925781 -1.425781 L 1.925781 -8.167969 L 3.171875 -8.167969 C 5.210938 -8.167969 5.617188 -7.136719 5.617188 -7.136719 Z M 5.617188 -7.136719 "/></g></g></g><g fill="#f4ebe2" fill-opacity="1"><g transform="translate(86.912488, 19.360977)"><g><path d="M 10.453125 -0.0117188 L 12.542969 -0.0117188 C 12.542969 -0.0117188 12.042969 -0.214844 11.5625 -1.425781 L 6.402344 -14.613281 L 1.234375 -1.425781 C 0.765625 -0.214844 0.253906 -0.0117188 0.253906 -0.0117188 L 1.335938 -0.0117188 C 1.335938 -0.0117188 1 -0.214844 1.46875 -1.425781 L 2.640625 -4.40625 L 9.15625 -4.40625 L 10.320312 -1.425781 C 10.796875 -0.214844 10.453125 -0.0117188 10.453125 -0.0117188 Z M 2.734375 -4.648438 L 5.894531 -12.734375 L 9.066406 -4.648438 Z M 2.734375 -4.648438 "/></g></g></g><g fill="#d5c2a0" fill-opacity="0.4"><g transform="translate(76.757895, 44.046309)"><g><path d="M 3.507812 -14.613281 C 3.191406 -14.613281 0.253906 -14.613281 0.253906 -14.613281 C 0.253906 -14.613281 0.683594 -14.480469 0.683594 -13.265625 L 0.683594 -1.425781 C 0.683594 -0.214844 0.253906 -0.0117188 0.253906 -0.0117188 C 0.253906 -0.0117188 3.304688 -0.0117188 3.589844 -0.0117188 C 8.933594 -0.0117188 11.207031 -3.285156 11.207031 -7.300781 C 11.207031 -11.320312 9.167969 -14.613281 3.507812 -14.613281 Z M 3.203125 -0.457031 L 2.050781 -0.457031 C 1.976562 -0.664062 1.925781 -0.980469 1.925781 -1.425781 L 1.925781 -13.277344 C 1.925781 -13.726562 1.976562 -14.019531 2.050781 -14.226562 L 3.203125 -14.226562 C 8.546875 -14.226562 9.910156 -11.105469 9.910156 -7.332031 C 9.910156 -3.546875 8.484375 -0.457031 3.203125 -0.457031 Z M 3.203125 -0.457031 "/></g></g></g><g fill="#d5c2a0" fill-opacity="0.4"><g transform="translate(88.418107, 44.046309)"><g><path d="M 0.253906 -0.0117188 L 2.34375 -0.0117188 C 2.34375 -0.0117188 1.925781 -0.214844 1.925781 -1.425781 L 1.925781 -13.277344 C 1.925781 -14.488281 2.34375 -14.621094 2.34375 -14.621094 L 0.253906 -14.621094 C 0.253906 -14.621094 0.683594 -14.480469 0.683594 -13.265625 L 0.683594 -1.425781 C 0.683594 -0.214844 0.253906 -0.0117188 0.253906 -0.0117188 Z M 0.253906 -0.0117188 "/></g></g></g><g fill="#d5c2a0" fill-opacity="0.4"><g transform="translate(91.221043, 44.046309)"><g><path d="M 5.617188 -7.136719 L 5.617188 -9.542969 C 5.617188 -9.542969 5.210938 -8.515625 3.171875 -8.515625 L 1.925781 -8.515625 L 1.925781 -13.277344 C 1.925781 -13.714844 1.976562 -14.019531 2.050781 -14.214844 L 4.546875 -14.214844 C 9.320312 -14.214844 9.882812 -12.675781 9.882812 -12.675781 L 9.464844 -14.621094 L 0.253906 -14.621094 C 0.253906 -14.621094 0.683594 -14.480469 0.683594 -13.265625 L 0.683594 -1.425781 C 0.683594 -0.214844 0.253906 -0.0117188 0.253906 -0.0117188 L 9.464844 -0.0117188 L 9.882812 -1.949219 C 9.882812 -1.949219 9.320312 -0.40625 4.546875 -0.40625 L 2.070312 -0.40625 C 1.988281 -0.621094 1.925781 -0.949219 1.925781 -1.425781 L 1.925781 -8.167969 L 3.171875 -8.167969 C 5.210938 -8.167969 5.617188 -7.136719 5.617188 -7.136719 Z M 5.617188 -7.136719 "/></g></g></g><g fill="#d5c2a0" fill-opacity="0.4"><g transform="translate(101.55623, 44.046309)"><g><path d="M 10.492188 -0.878906 L 12.683594 -0.0117188 C 12.683594 -0.0117188 12.265625 -0.214844 12.265625 -1.425781 L 12.265625 -4.90625 C 12.265625 -6.117188 12.683594 -6.25 12.683594 -6.25 L 10.59375 -6.25 C 10.59375 -6.25 11.023438 -6.109375 11.023438 -4.894531 L 11.023438 -2.792969 C 10.960938 -1.40625 9.148438 -0.480469 6.6875 -0.480469 C 3.855469 -0.480469 1.550781 -2.621094 1.550781 -7.332031 C 1.550781 -12.03125 4.539062 -14.226562 6.6875 -14.226562 C 9.300781 -14.226562 10.351562 -13.542969 11.675781 -11.378906 L 12.371094 -13.257812 C 11.226562 -12.949219 10.667969 -14.621094 7.117188 -14.621094 C 3.101562 -14.621094 0.253906 -11.941406 0.253906 -7.300781 C 0.253906 -2.671875 3.140625 -0.0117188 6.6875 -0.0117188 C 8.179688 -0.0117188 9.464844 -0.285156 10.492188 -0.878906 Z M 10.492188 -0.878906 "/></g></g></g><g fill="#d5c2a0" fill-opacity="0.4"><g transform="translate(114.694352, 44.046309)"><g><path d="M 6.6875 -14.582031 C 3.140625 -14.582031 0.253906 -11.320312 0.253906 -7.300781 C 0.253906 -3.285156 3.140625 -0.03125 6.6875 -0.03125 C 10.238281 -0.03125 13.125 -3.285156 13.125 -7.300781 C 13.125 -11.320312 10.238281 -14.582031 6.6875 -14.582031 Z M 6.6875 -0.480469 C 3.855469 -0.480469 1.550781 -3.546875 1.550781 -7.332031 C 1.550781 -11.105469 3.855469 -14.183594 6.6875 -14.183594 C 9.523438 -14.183594 11.828125 -11.105469 11.828125 -7.332031 C 11.828125 -3.546875 9.523438 -0.480469 6.6875 -0.480469 Z M 6.6875 -0.480469 "/></g></g></g><g fill="#f4ebe2" fill-opacity="1"><g transform="translate(75.988527, 43.276941)"><g><path d="M 3.507812 -14.613281 C 3.191406 -14.613281 0.253906 -14.613281 0.253906 -14.613281 C 0.253906 -14.613281 0.683594 -14.480469 0.683594 -13.265625 L 0.683594 -1.425781 C 0.683594 -0.214844 0.253906 -0.0117188 0.253906 -0.0117188 C 0.253906 -0.0117188 3.304688 -0.0117188 3.589844 -0.0117188 C 8.933594 -0.0117188 11.207031 -3.285156 11.207031 -7.300781 C 11.207031 -11.320312 9.167969 -14.613281 3.507812 -14.613281 Z M 3.203125 -0.457031 L 2.050781 -0.457031 C 1.976562 -0.664062 1.925781 -0.980469 1.925781 -1.425781 L 1.925781 -13.277344 C 1.925781 -13.726562 1.976562 -14.019531 2.050781 -14.226562 L 3.203125 -14.226562 C 8.546875 -14.226562 9.910156 -11.105469 9.910156 -7.332031 C 9.910156 -3.546875 8.484375 -0.457031 3.203125 -0.457031 Z M 3.203125 -0.457031 "/></g></g></g><g fill="#f4ebe2" fill-opacity="1"><g transform="translate(87.64874, 43.276941)"><g><path d="M 0.253906 -0.0117188 L 2.34375 -0.0117188 C 2.34375 -0.0117188 1.925781 -0.214844 1.925781 -1.425781 L 1.925781 -13.277344 C 1.925781 -14.488281 2.34375 -14.621094 2.34375 -14.621094 L 0.253906 -14.621094 C 0.253906 -14.621094 0.683594 -14.480469 0.683594 -13.265625 L 0.683594 -1.425781 C 0.683594 -0.214844 0.253906 -0.0117188 0.253906 -0.0117188 Z M 0.253906 -0.0117188 "/></g></g></g><g fill="#f4ebe2" fill-opacity="1"><g transform="translate(90.451675, 43.276941)"><g><path d="M 5.617188 -7.136719 L 5.617188 -9.542969 C 5.617188 -9.542969 5.210938 -8.515625 3.171875 -8.515625 L 1.925781 -8.515625 L 1.925781 -13.277344 C 1.925781 -13.714844 1.976562 -14.019531 2.050781 -14.214844 L 4.546875 -14.214844 C 9.320312 -14.214844 9.882812 -12.675781 9.882812 -12.675781 L 9.464844 -14.621094 L 0.253906 -14.621094 C 0.253906 -14.621094 0.683594 -14.480469 0.683594 -13.265625 L 0.683594 -1.425781 C 0.683594 -0.214844 0.253906 -0.0117188 0.253906 -0.0117188 L 9.464844 -0.0117188 L 9.882812 -1.949219 C 9.882812 -1.949219 9.320312 -0.40625 4.546875 -0.40625 L 2.070312 -0.40625 C 1.988281 -0.621094 1.925781 -0.949219 1.925781 -1.425781 L 1.925781 -8.167969 L 3.171875 -8.167969 C 5.210938 -8.167969 5.617188 -7.136719 5.617188 -7.136719 Z M 5.617188 -7.136719 "/></g></g></g><g fill="#f4ebe2" fill-opacity="1"><g transform="translate(100.786862, 43.276941)"><g><path d="M 10.492188 -0.878906 L 12.683594 -0.0117188 C 12.683594 -0.0117188 12.265625 -0.214844 12.265625 -1.425781 L 12.265625 -4.90625 C 12.265625 -6.117188 12.683594 -6.25 12.683594 -6.25 L 10.59375 -6.25 C 10.59375 -6.25 11.023438 -6.109375 11.023438 -4.894531 L 11.023438 -2.792969 C 10.960938 -1.40625 9.148438 -0.480469 6.6875 -0.480469 C 3.855469 -0.480469 1.550781 -2.621094 1.550781 -7.332031 C 1.550781 -12.03125 4.539062 -14.226562 6.6875 -14.226562 C 9.300781 -14.226562 10.351562 -13.542969 11.675781 -11.378906 L 12.371094 -13.257812 C 11.226562 -12.949219 10.667969 -14.621094 7.117188 -14.621094 C 3.101562 -14.621094 0.253906 -11.941406 0.253906 -7.300781 C 0.253906 -2.671875 3.140625 -0.0117188 6.6875 -0.0117188 C 8.179688 -0.0117188 9.464844 -0.285156 10.492188 -0.878906 Z M 10.492188 -0.878906 "/></g></g></g><g fill="#f4ebe2" fill-opacity="1"><g transform="translate(113.924985, 43.276941)"><g><path d="M 6.6875 -14.582031 C 3.140625 -14.582031 0.253906 -11.320312 0.253906 -7.300781 C 0.253906 -3.285156 3.140625 -0.03125 6.6875 -0.03125 C 10.238281 -0.03125 13.125 -3.285156 13.125 -7.300781 C 13.125 -11.320312 10.238281 -14.582031 6.6875 -14.582031 Z M 6.6875 -0.480469 C 3.855469 -0.480469 1.550781 -3.546875 1.550781 -7.332031 C 1.550781 -11.105469 3.855469 -14.183594 6.6875 -14.183594 C 9.523438 -14.183594 11.828125 -11.105469 11.828125 -7.332031 C 11.828125 -3.546875 9.523438 -0.480469 6.6875 -0.480469 Z M 6.6875 -0.480469 "/></g></g></g><g fill="#c4ab8d" fill-opacity="0.4"><g transform="translate(60.111281, 44.028631)"><g><path d="M 7.546875 -3.945312 C 6.886719 -3.300781 5.945312 -3.039062 4.960938 -2.847656 C 5.71875 -5.300781 6.640625 -8.792969 7.660156 -13.304688 C 7.738281 -13.660156 7.605469 -14.058594 7.320312 -14.324219 L 7.152344 -14.472656 C 7.058594 -14.566406 6.90625 -14.605469 6.773438 -14.566406 C 6.660156 -14.53125 6.585938 -14.4375 6.546875 -14.324219 L 6.433594 -13.71875 C 6.378906 -13.472656 5.640625 -11.191406 4.660156 -8.925781 C 3.773438 -6.90625 3.113281 -5.8125 2.605469 -5.265625 C 2.492188 -5.207031 2.300781 -5.171875 2.074219 -5.1875 C 1.945312 -5.226562 1.847656 -5.285156 1.753906 -5.398438 C 1.113281 -6.320312 1.773438 -9.792969 2.171875 -11.871094 C 2.226562 -12.132812 2.09375 -12.417969 1.867188 -12.546875 L 1.507812 -12.792969 L 1.507812 -12.8125 C 1.414062 -12.851562 1.300781 -12.871094 1.207031 -12.832031 C 1.113281 -12.773438 1.058594 -12.699219 1.019531 -12.605469 C 0.152344 -8.433594 0.0742188 -5.925781 0.832031 -4.925781 C 1.039062 -4.625 1.339844 -4.453125 1.679688 -4.433594 C 1.699219 -4.414062 1.71875 -4.414062 1.753906 -4.414062 C 2.058594 -4.414062 2.398438 -4.625 2.773438 -5.039062 C 3 -5.152344 3.113281 -5.320312 3.113281 -5.320312 C 3.152344 -5.378906 3.152344 -5.433594 3.132812 -5.472656 C 3.660156 -6.207031 4.265625 -7.320312 4.90625 -8.8125 C 5.285156 -9.644531 5.605469 -10.511719 5.886719 -11.265625 C 5.226562 -8.304688 4.414062 -5.039062 3.699219 -2.640625 C 2.773438 -2.492188 1.925781 -2.300781 1.265625 -1.847656 C -0.207031 -0.832031 -0.1875 0.378906 0.28125 1.09375 C 0.621094 1.605469 1.152344 1.90625 1.773438 1.90625 L 1.832031 1.90625 C 2.433594 1.90625 3.058594 1.640625 3.359375 1.207031 C 3.699219 0.734375 4.226562 -0.527344 4.867188 -2.566406 C 5.945312 -2.753906 6.980469 -3.019531 7.738281 -3.734375 C 7.792969 -3.792969 7.792969 -3.867188 7.738281 -3.925781 C 7.699219 -3.980469 7.605469 -4 7.546875 -3.945312 Z M 2.398438 0.71875 C 2.152344 1.039062 1.773438 1.265625 1.378906 1.300781 C 1.074219 1.320312 0.8125 1.246094 0.621094 1.09375 C 0.585938 1.058594 0.546875 1 0.527344 0.945312 C 0.113281 0.320312 0.113281 -0.71875 1.433594 -1.621094 C 2 -2.019531 2.773438 -2.207031 3.605469 -2.339844 C 3.132812 -0.832031 2.71875 0.300781 2.398438 0.71875 Z M 2.398438 0.71875 "/></g></g></g><g fill="#f4ebe2" fill-opacity="1"><g transform="translate(59.27731, 43.194659)"><g><path d="M 7.546875 -3.945312 C 6.886719 -3.300781 5.945312 -3.039062 4.960938 -2.847656 C 5.71875 -5.300781 6.640625 -8.792969 7.660156 -13.304688 C 7.738281 -13.660156 7.605469 -14.058594 7.320312 -14.324219 L 7.152344 -14.472656 C 7.058594 -14.566406 6.90625 -14.605469 6.773438 -14.566406 C 6.660156 -14.53125 6.585938 -14.4375 6.546875 -14.324219 L 6.433594 -13.71875 C 6.378906 -13.472656 5.640625 -11.191406 4.660156 -8.925781 C 3.773438 -6.90625 3.113281 -5.8125 2.605469 -5.265625 C 2.492188 -5.207031 2.300781 -5.171875 2.074219 -5.1875 C 1.945312 -5.226562 1.847656 -5.285156 1.753906 -5.398438 C 1.113281 -6.320312 1.773438 -9.792969 2.171875 -11.871094 C 2.226562 -12.132812 2.09375 -12.417969 1.867188 -12.546875 L 1.507812 -12.792969 L 1.507812 -12.8125 C 1.414062 -12.851562 1.300781 -12.871094 1.207031 -12.832031 C 1.113281 -12.773438 1.058594 -12.699219 1.019531 -12.605469 C 0.152344 -8.433594 0.0742188 -5.925781 0.832031 -4.925781 C 1.039062 -4.625 1.339844 -4.453125 1.679688 -4.433594 C 1.699219 -4.414062 1.71875 -4.414062 1.753906 -4.414062 C 2.058594 -4.414062 2.398438 -4.625 2.773438 -5.039062 C 3 -5.152344 3.113281 -5.320312 3.113281 -5.320312 C 3.152344 -5.378906 3.152344 -5.433594 3.132812 -5.472656 C 3.660156 -6.207031 4.265625 -7.320312 4.90625 -8.8125 C 5.285156 -9.644531 5.605469 -10.511719 5.886719 -11.265625 C 5.226562 -8.304688 4.414062 -5.039062 3.699219 -2.640625 C 2.773438 -2.492188 1.925781 -2.300781 1.265625 -1.847656 C -0.207031 -0.832031 -0.1875 0.378906 0.28125 1.09375 C 0.621094 1.605469 1.152344 1.90625 1.773438 1.90625 L 1.832031 1.90625 C 2.433594 1.90625 3.058594 1.640625 3.359375 1.207031 C 3.699219 0.734375 4.226562 -0.527344 4.867188 -2.566406 C 5.945312 -2.753906 6.980469 -3.019531 7.738281 -3.734375 C 7.792969 -3.792969 7.792969 -3.867188 7.738281 -3.925781 C 7.699219 -3.980469 7.605469 -4 7.546875 -3.945312 Z M 2.398438 0.71875 C 2.152344 1.039062 1.773438 1.265625 1.378906 1.300781 C 1.074219 1.320312 0.8125 1.246094 0.621094 1.09375 C 0.585938 1.058594 0.546875 1 0.527344 0.945312 C 0.113281 0.320312 0.113281 -0.71875 1.433594 -1.621094 C 2 -2.019531 2.773438 -2.207031 3.605469 -2.339844 C 3.132812 -0.832031 2.71875 0.300781 2.398438 0.71875 Z M 2.398438 0.71875 "/></g></g></g></svg>