<svg xmlns="http://www.w3.org/2000/svg" xmlns:xlink="http://www.w3.org/1999/xlink" width="793" zoomAndPan="magnify" viewBox="0 0 595.5 842.249979" height="1122" preserveAspectRatio="xMidYMid meet" version="1.0"><defs><clipPath id="86ad6f8179"><path d="M 96.71875 341.113281 L 523.367188 341.113281 L 523.367188 725.441406 L 96.71875 725.441406 Z M 96.71875 341.113281 " clip-rule="nonzero"/></clipPath></defs><g clip-path="url(#86ad6f8179)"><path fill="#a6a6a6" d="M 518.988281 682.917969 C 516.132812 693.289062 506.132812 698.136719 496.902344 701.828125 C 487.097656 705.753906 477.023438 709.246094 466.957031 712.421875 C 447.933594 718.425781 427.242188 723.882812 407.503906 717.96875 C 406.4375 717.648438 405.214844 717.128906 404.96875 716.042969 C 404.125 712.261719 415.160156 707.113281 417.765625 705.464844 C 422.085938 702.726562 426.414062 699.980469 430.554688 696.972656 C 431 696.648438 431.433594 696.3125 431.871094 695.984375 C 432.09375 696.050781 432.335938 696.085938 432.613281 696.066406 C 449.90625 694.820312 466.816406 689.621094 481.667969 680.652344 C 483.714844 679.417969 492.140625 681.125 494.730469 681.152344 C 498.003906 681.183594 501.472656 681.457031 504.734375 681.042969 C 507.957031 680.628906 521.261719 674.660156 518.988281 682.917969 Z M 445.554688 683.3125 C 453.425781 683.121094 460.792969 680.652344 467.101562 675.921875 C 467.300781 676.117188 467.546875 676.28125 467.847656 676.402344 C 470.582031 677.480469 473.355469 678.378906 476.152344 679.125 C 464.082031 685.703125 451.109375 689.847656 437.496094 691.449219 C 440.378906 688.929688 443.085938 686.242188 445.554688 683.3125 Z M 443.074219 656.90625 C 440.296875 648.464844 437.46875 640.046875 434.527344 631.664062 C 431.683594 623.546875 428.734375 615.460938 425.640625 607.433594 C 424.769531 605.175781 417.222656 583.390625 415.867188 583.535156 C 421.011719 582.832031 425.945312 581.019531 430.464844 578.375 C 440.703125 610.210938 452.914062 641.382812 464.363281 672.792969 C 464.664062 673.613281 456.769531 676.949219 455.914062 677.253906 C 446.28125 680.6875 444.96875 662.667969 443.074219 656.90625 Z M 408.542969 578.996094 C 399.707031 577.796875 391.179688 573 385.238281 566.394531 C 379.167969 559.644531 374.984375 551.363281 371.238281 543.171875 C 362.316406 523.675781 354.238281 503.746094 346.796875 483.640625 C 340.5625 466.796875 334.824219 449.757812 329.59375 432.570312 C 332.554688 431.433594 335.554688 430.800781 338.570312 430.566406 L 338.640625 430.566406 C 358.320312 430.566406 374.015625 450.464844 390.625 459.238281 C 406.613281 467.667969 425.351562 469.324219 442.570312 464.503906 C 443.539062 468.828125 444.464844 473.167969 445.351562 477.519531 C 450.773438 504.183594 459.050781 541.511719 440.414062 564.984375 C 433.011719 574.308594 420.5 580.617188 408.542969 578.996094 Z M 439.582031 460.980469 C 419.074219 466.035156 398.414062 460.921875 381.042969 448.074219 C 375.246094 443.789062 369.203125 438.925781 362.8125 434.902344 C 370.046875 437.433594 377.183594 440.5 384.027344 442.558594 C 393.003906 445.253906 401.636719 445.503906 410.941406 445.667969 C 421.796875 445.890625 437.203125 448.101562 439.582031 460.980469 Z M 313.539062 372.898438 C 341.074219 356.664062 371.941406 347.210938 403.917969 345.332031 C 418.5625 379.503906 430.441406 414.839844 439.347656 450.917969 C 428.894531 438.496094 403.859375 443.222656 389.660156 439.808594 C 372.992188 435.800781 355.652344 425.355469 338.488281 426.460938 L 338.433594 426.460938 C 335.125 426.445312 331.726562 426.929688 328.238281 428.078125 C 322.777344 409.851562 317.882812 391.445312 313.539062 372.898438 Z M 289.253906 437.238281 C 266.0625 442.574219 242.714844 436.714844 219.703125 432.914062 C 208.570312 431.074219 194.714844 429.28125 185.101562 434.972656 C 193.425781 404.417969 203.894531 374.460938 216.386719 345.332031 C 248.34375 347.210938 279.199219 356.664062 306.75 372.886719 C 301.6875 394.539062 295.863281 416 289.253906 437.238281 Z M 273.5 483.640625 C 268.066406 498.328125 262.3125 512.898438 256.117188 527.28125 C 248.292969 545.441406 240.367188 568.625 220.597656 576.894531 C 206.566406 582.769531 193.941406 578.375 183.941406 567.976562 C 177.796875 561.59375 172.859375 554.191406 170.59375 545.550781 C 164.800781 523.425781 170.46875 499.382812 174.949219 477.519531 C 176.984375 467.613281 179.222656 457.746094 181.714844 447.960938 C 211.972656 474.644531 253.847656 450.171875 287.636719 442.394531 C 283.265625 456.253906 278.550781 470.003906 273.5 483.640625 Z M 194.910156 606.769531 C 191.792969 614.832031 188.828125 622.953125 185.960938 631.109375 C 183.179688 639.03125 180.320312 647.5 177.683594 655.691406 C 176.316406 659.9375 174.980469 664.195312 173.679688 668.460938 C 173.210938 669.992188 172.710938 673.367188 171.632812 675.824219 C 171.046875 677.164062 170.289062 678.226562 169.269531 678.578125 C 167.761719 679.097656 155.527344 673.898438 155.933594 672.792969 C 167.382812 641.382812 179.589844 610.207031 189.84375 578.382812 C 194.355469 581.019531 199.277344 582.832031 204.433594 583.539062 C 203.191406 583.378906 195.75 604.605469 194.910156 606.769531 Z M 182.800781 691.449219 C 169.1875 689.847656 156.210938 685.703125 144.144531 679.125 C 146.941406 678.378906 149.714844 677.480469 152.449219 676.402344 C 152.75 676.28125 152.996094 676.117188 153.195312 675.921875 C 159.5 680.652344 166.867188 683.121094 174.742188 683.3125 C 177.210938 686.242188 179.917969 688.929688 182.800781 691.449219 Z M 188.421875 695.984375 C 188.863281 696.3125 189.292969 696.648438 189.742188 696.972656 C 193.882812 699.980469 198.210938 702.726562 202.53125 705.464844 C 203.996094 706.390625 217.8125 714.273438 215.144531 716.519531 C 214.863281 716.757812 214.683594 717.019531 214.574219 717.285156 C 195.238281 724.472656 172.207031 718.378906 153.339844 712.421875 C 143.652344 709.367188 134.011719 705.96875 124.550781 702.277344 C 115.035156 698.5625 98.144531 690.992188 101.980469 677.988281 C 102.074219 678.035156 102.167969 678.082031 102.273438 678.113281 C 114.289062 681.90625 126.75 682.632812 138.855469 680.328125 C 138.988281 680.75 139.273438 681.144531 139.769531 681.429688 C 154.539062 689.9375 170.679688 694.84375 187.679688 696.066406 C 187.960938 696.085938 188.203125 696.050781 188.421875 695.984375 Z M 183.359375 441.480469 C 195.253906 428.089844 224.558594 438.070312 239.121094 440.511719 C 249.066406 442.183594 259.089844 443.5 269.0625 443.511719 C 239.757812 453.117188 206.71875 466.382812 182.859375 443.359375 C 183.027344 442.738281 183.191406 442.101562 183.359375 441.480469 Z M 522.753906 676.925781 C 522.632812 676.679688 522.496094 676.457031 522.34375 676.253906 C 519.5 672.390625 512.019531 675.574219 508.496094 676.242188 C 504.113281 677.070312 499.652344 677.496094 495.195312 677.488281 C 486.214844 677.472656 477.296875 675.6875 468.949219 672.402344 C 468.824219 672.355469 468.707031 672.328125 468.589844 672.300781 C 456.925781 640.28125 444.449219 608.515625 434.066406 576.046875 C 439.515625 572.136719 444.203125 567.007812 447.703125 561.234375 C 456.898438 546.050781 456.820312 528.605469 455.011719 511.5625 C 449.222656 456.945312 432.464844 403.953125 411.746094 353.296875 C 410.796875 350.976562 409.839844 348.664062 408.871094 346.355469 C 407.226562 342.433594 406.335938 341.207031 402.210938 341.285156 C 397.652344 341.371094 393.011719 342.0625 388.5 342.667969 C 379.6875 343.851562 370.953125 345.605469 362.367188 347.914062 C 344.792969 352.648438 328.175781 359.789062 312.414062 368.824219 C 311.722656 369.21875 311.011719 369.621094 310.21875 369.71875 C 307.6875 370.027344 302.914062 365.925781 300.660156 364.734375 C 296.824219 362.703125 292.925781 360.792969 288.96875 359.007812 C 281.308594 355.554688 273.4375 352.574219 265.410156 350.085938 C 249.320312 345.09375 232.613281 342.078125 215.789062 341.144531 C 215.042969 341.101562 214.488281 341.40625 214.171875 341.875 C 213.660156 341.960938 213.203125 342.277344 212.925781 342.941406 C 199.429688 374.378906 188.199219 406.769531 179.5 439.824219 C 178.765625 442.574219 178.046875 445.335938 177.371094 448.101562 C 173.554688 463.34375 170.277344 478.722656 167.566406 494.199219 C 162.660156 522.199219 159.890625 557.132812 186.230469 576.042969 C 175.847656 608.511719 163.367188 640.28125 151.707031 672.300781 C 151.589844 672.328125 151.46875 672.355469 151.34375 672.402344 C 143 675.691406 134.082031 677.472656 125.105469 677.488281 C 118.148438 677.5 112.066406 675.878906 105.355469 674.554688 C 98.667969 673.234375 95.710938 680.269531 97.019531 685.863281 C 101.085938 703.242188 128.800781 708.808594 142.996094 713.445312 C 158.648438 718.558594 174.46875 724.449219 191.0625 725.414062 C 196.28125 725.71875 228.664062 723.765625 218.414062 711.296875 C 215.386719 707.617188 210.425781 705.550781 206.488281 703.058594 C 195.949219 696.394531 185.457031 689.582031 177.308594 680.003906 C 176.539062 679.09375 175.769531 678.136719 175.445312 676.992188 C 174.78125 674.640625 177.238281 670.222656 177.960938 667.988281 C 179.238281 664.042969 180.523438 660.097656 181.820312 656.15625 C 184.503906 648.019531 187.238281 639.894531 190.078125 631.808594 C 195.664062 615.898438 201.660156 600.121094 208.421875 584.671875 C 208.539062 584.398438 208.59375 584.128906 208.613281 583.871094 C 208.613281 583.882812 225.113281 578.191406 226.660156 577.5 C 236.441406 573.121094 243.335938 563.285156 248.289062 554.117188 C 258.09375 535.972656 265.492188 516.085938 272.90625 496.894531 C 279.972656 478.613281 286.433594 460.109375 292.296875 441.425781 C 292.378906 441.175781 292.460938 440.929688 292.53125 440.679688 C 292.847656 439.699219 293.152344 438.746094 293.445312 437.75 C 293.472656 437.679688 293.5 437.613281 293.5 437.542969 C 299.738281 417.421875 305.28125 397.082031 310.148438 376.574219 C 319.839844 417.460938 332.277344 457.6875 347.394531 496.894531 C 354.742188 515.882812 361.863281 535.058594 371.59375 552.996094 C 379.53125 567.628906 393.363281 584.1875 411.6875 583.867188 C 411.703125 584.128906 411.753906 584.394531 411.875 584.671875 C 425.011719 614.6875 435.207031 645.824219 445.234375 676.980469 C 437.15625 688.304688 425.417969 695.714844 413.808594 703.058594 C 409.945312 705.503906 404.601562 707.472656 401.855469 711.25 C 392.335938 724.359375 424.175781 725.164062 430.230469 724.84375 C 446.628906 723.980469 462.394531 718.523438 477.777344 713.1875 C 493.144531 707.855469 523.109375 701.363281 523.363281 680.371094 C 523.378906 679.191406 523.285156 677.976562 522.753906 676.925781 " fill-opacity="1" fill-rule="nonzero"/></g><path fill="#a6a6a6" d="M 338.222656 313.410156 C 336.382812 317.453125 332.65625 320.6875 330.070312 324.308594 C 327.6875 327.648438 325.625 331.210938 323.910156 334.933594 C 321.738281 339.648438 320.1875 344.503906 319.121094 349.503906 C 313.777344 342.292969 315.792969 329.078125 318.015625 321.375 C 319.484375 316.289062 321.710938 310.558594 325.445312 306.640625 C 331.503906 300.285156 342.640625 303.695312 338.222656 313.410156 Z M 314.015625 320.269531 C 312.070312 327.0625 311.046875 334.710938 312.316406 341.898438 C 312.984375 345.65625 314.253906 349.296875 316.179688 352.597656 C 317.347656 354.605469 319.742188 359.375 321.933594 357.214844 C 322.964844 356.199219 323.070312 350.542969 323.460938 348.949219 C 324.8125 343.398438 326.757812 338.050781 329.503906 333.035156 C 333.484375 325.757812 341.582031 319.890625 343.257812 311.492188 C 343.871094 308.390625 343.375 304.972656 341.425781 302.488281 C 339.765625 300.371094 337.167969 299.082031 334.492188 298.789062 C 322.714844 297.488281 316.664062 311.03125 314.015625 320.269531 " fill-opacity="1" fill-rule="nonzero"/><path fill="#a6a6a6" d="M 281.96875 301.902344 C 283.707031 302.058594 285.230469 302.707031 286.566406 303.6875 C 290.953125 306.902344 293.148438 312.429688 294.636719 317.46875 C 295.402344 320.066406 296.066406 322.730469 296.675781 325.367188 C 297.316406 328.144531 297.132812 333.34375 298.574219 335.703125 C 296.355469 332.066406 293.910156 328.582031 291.140625 325.308594 C 287.855469 321.425781 283.433594 318.566406 280.085938 314.695312 C 276.78125 310.867188 272.433594 301.03125 281.96875 301.902344 Z M 276.59375 297.25 C 269.957031 301.164062 271.707031 310.105469 275.621094 315.230469 C 279.039062 319.714844 283.773438 323.144531 287.480469 327.40625 C 292 332.597656 295.660156 338.355469 298.753906 344.496094 C 300.628906 348.226562 303.679688 341.878906 303.449219 339.808594 C 302.25 329.039062 299.933594 317.507812 294.835938 307.855469 C 291.644531 301.8125 284.445312 292.621094 276.59375 297.25 " fill-opacity="1" fill-rule="nonzero"/><path fill="#a6a6a6" d="M 357.492188 256.105469 C 359.007812 254.792969 360.636719 253.511719 362.460938 252.628906 C 365.5625 251.121094 370.644531 251.078125 371.167969 255.363281 C 371.894531 261.339844 365.207031 261.6875 361.25 262.121094 C 357.703125 262.511719 353.925781 263.015625 350.691406 264.34375 C 352.496094 261.273438 354.742188 258.484375 357.492188 256.105469 Z M 347.117188 273.507812 C 349.988281 263.613281 364.964844 267.835938 372.210938 263.507812 C 377.003906 260.640625 378.914062 254.894531 374.898438 250.445312 C 369.949219 244.957031 362.34375 247.335938 357.167969 251.066406 C 352.800781 254.214844 348.5 258.558594 345.835938 263.414062 C 344.5625 265.734375 342.992188 269.027344 343.402344 271.773438 C 343.679688 273.640625 346.027344 277.265625 347.117188 273.507812 " fill-opacity="1" fill-rule="nonzero"/><path fill="#a6a6a6" d="M 269.296875 247.695312 C 271.476562 248.894531 273.398438 250.558594 274.878906 252.558594 C 276.253906 254.410156 276.585938 258.101562 277.925781 259.546875 C 275.90625 257.375 273.445312 255.632812 270.679688 254.226562 C 268.308594 253.011719 265.8125 252.035156 263.273438 251.191406 C 260.089844 250.136719 256.207031 249.605469 253.804688 247.03125 C 258.539062 244.5625 264.726562 245.171875 269.296875 247.695312 Z M 249.171875 248.03125 C 249.789062 249.871094 251.394531 251.242188 253.066406 252.257812 C 261.257812 257.222656 273.898438 257.621094 278.1875 267.472656 C 279.367188 270.179688 281.976562 267.625 282.167969 265.839844 C 283.765625 250.960938 270.152344 238.15625 255.316406 242.023438 C 252.332031 242.800781 247.878906 243.460938 249.09375 247.785156 C 249.117188 247.867188 249.140625 247.949219 249.171875 248.03125 " fill-opacity="1" fill-rule="nonzero"/><path fill="#a6a6a6" d="M 307.230469 300.90625 C 307.214844 303.574219 311.367188 303.574219 311.378906 300.90625 C 311.433594 287.984375 317.714844 276.363281 328.566406 269.304688 C 330.792969 267.855469 328.71875 264.265625 326.46875 265.726562 C 314.402344 273.578125 307.292969 286.5 307.230469 300.90625 " fill-opacity="1" fill-rule="nonzero"/><path fill="#a6a6a6" d="M 345.816406 329.90625 C 344.761719 332.332031 348.335938 334.441406 349.398438 332 C 355.527344 317.921875 367.847656 308.214844 382.992188 305.582031 C 385.617188 305.125 384.503906 301.128906 381.890625 301.582031 C 365.824219 304.378906 352.324219 314.960938 345.816406 329.90625 " fill-opacity="1" fill-rule="nonzero"/><path fill="#a6a6a6" d="M 241.644531 273.429688 C 252.738281 267.730469 270.089844 277.117188 278.675781 283.832031 C 280.753906 285.457031 283.710938 282.542969 281.609375 280.898438 C 271.234375 272.785156 252.695312 263.097656 239.550781 269.847656 C 237.175781 271.070312 239.273438 274.648438 241.644531 273.429688 " fill-opacity="1" fill-rule="nonzero"/><path fill="#a6a6a6" d="M 240.296875 313.039062 C 237.667969 313.480469 238.785156 317.476562 241.398438 317.035156 C 254.976562 314.734375 268.273438 321.6875 274.5 333.855469 C 275.714844 336.234375 279.296875 334.136719 278.082031 331.765625 C 270.945312 317.8125 255.667969 310.433594 240.296875 313.039062 " fill-opacity="1" fill-rule="nonzero"/><path fill="#a6a6a6" d="M 309.539062 246.765625 C 310.058594 243.921875 310.773438 240.8125 312.476562 238.414062 C 313.371094 237.148438 319 231.988281 320.105469 235.429688 C 320.21875 235.789062 320.140625 236.179688 320.058594 236.550781 C 319.191406 240.429688 318.066406 244.273438 316.554688 247.957031 C 315.871094 249.621094 310.078125 258.039062 310.441406 259.152344 C 309.132812 255.164062 308.769531 250.964844 309.539062 246.765625 Z M 308.410156 265.785156 C 309.144531 266.195312 309.941406 266.054688 310.761719 265.535156 C 314.578125 263.101562 318.933594 252.394531 319.972656 250.253906 C 322.449219 245.128906 329.425781 230.207031 319.402344 228.542969 C 312.921875 227.464844 308.089844 237.167969 306.5 241.976562 C 304.910156 246.800781 304.820312 251.949219 305.703125 256.917969 C 306.097656 259.128906 306.160156 264.511719 308.410156 265.785156 " fill-opacity="1" fill-rule="nonzero"/><path fill="#a6a6a6" d="M 404.082031 284.957031 C 405.589844 284.859375 407.097656 284.945312 408.605469 285.207031 C 413.238281 285.621094 414.054688 288.566406 411.09375 294.050781 C 409.128906 295.046875 405.035156 293.304688 403.15625 292.710938 C 398.078125 291.132812 393.351562 290.71875 388.730469 291.9375 C 391.136719 287.347656 400.429688 285.109375 404.082031 284.957031 Z M 385.195312 297.457031 C 385.277344 297.5 385.359375 297.539062 385.441406 297.570312 C 387.339844 298.300781 389.710938 296.097656 391.570312 295.632812 C 395.316406 294.695312 399.429688 295.894531 402.988281 297.023438 C 406.53125 298.140625 410.195312 299.027344 413.777344 297.53125 C 418.796875 295.445312 420.304688 289.765625 417.042969 285.414062 C 412.617188 279.515625 403.019531 279.976562 396.734375 281.820312 C 393.5625 282.75 377.105469 293.097656 385.195312 297.457031 " fill-opacity="1" fill-rule="nonzero"/><path fill="#a6a6a6" d="M 217.964844 301.382812 C 219.660156 300.214844 221.523438 299.230469 223.507812 298.652344 C 226.828125 297.6875 235.21875 297.8125 235.640625 302.410156 C 235.433594 300.15625 221.789062 306.503906 220.96875 307.027344 C 219.578125 307.925781 217.992188 308.304688 216.21875 308.167969 C 214.46875 304.910156 215.050781 302.648438 217.964844 301.382812 Z M 213.816406 311.691406 C 218.359375 313.660156 222.253906 310.375 226.023438 308.300781 C 227.792969 307.328125 229.640625 306.191406 231.734375 306.203125 C 234.808594 306.222656 242.558594 308.6875 240.65625 301.765625 C 239.6875 298.238281 235.378906 295.710938 232.128906 294.75 C 224.898438 292.605469 216.398438 295.691406 211.625 301.359375 C 208.570312 304.984375 209.304688 309.730469 213.816406 311.691406 " fill-opacity="1" fill-rule="nonzero"/><path fill="#a6a6a6" d="M 371.679688 480.578125 C 368.667969 482.472656 365.722656 479.082031 364.75 476.472656 C 364.316406 475.304688 364.300781 473.910156 365.019531 472.890625 C 366.734375 470.464844 371.277344 471.203125 372.417969 473.8125 C 373.238281 475.683594 373.75 479.269531 371.679688 480.578125 Z M 363.878906 468.160156 C 363.066406 468.785156 362.289062 469.636719 361.582031 470.75 C 356.972656 477.957031 366.675781 489.121094 374.214844 483.867188 C 382.839844 477.859375 372.101562 461.816406 363.878906 468.160156 " fill-opacity="1" fill-rule="nonzero"/><path fill="#a6a6a6" d="M 413.191406 492.351562 C 410.398438 492.238281 408.199219 489.808594 408.394531 486.984375 C 408.714844 482.296875 415.695312 482.386719 417.78125 485.691406 C 419.96875 489.15625 416.78125 492.496094 413.191406 492.351562 Z M 413.960938 479.203125 C 409.921875 478.527344 405.640625 480.820312 404.519531 485.070312 C 403.152344 490.222656 406.792969 495.640625 412.019531 496.382812 C 416.765625 497.054688 422.015625 494.082031 422.597656 489.050781 C 423.179688 484 419.0625 479.199219 413.960938 479.203125 " fill-opacity="1" fill-rule="nonzero"/><path fill="#a6a6a6" d="M 408.484375 528.023438 C 404.019531 532.820312 399.828125 525.71875 399.617188 521.550781 C 399.601562 521.230469 399.601562 520.894531 399.746094 520.605469 C 400.976562 518.105469 414.0625 522.03125 408.484375 528.023438 Z M 402.683594 515.449219 C 399.957031 515.285156 397.429688 515.710938 396.0625 518.398438 C 395.066406 520.359375 395.140625 522.726562 395.789062 524.824219 C 397.339844 529.832031 401.648438 535.257812 407.542969 533.421875 C 411.902344 532.066406 414.496094 527.871094 413.613281 523.367188 C 412.5625 517.980469 407.707031 515.746094 402.683594 515.449219 " fill-opacity="1" fill-rule="nonzero"/><path fill="#a6a6a6" d="M 203.996094 480.414062 C 202.75 482.792969 199.3125 483.984375 197.023438 481.601562 C 192.308594 476.683594 200.980469 470.578125 203.992188 476.613281 C 204.671875 477.976562 204.566406 479.320312 203.996094 480.414062 Z M 207.433594 481.746094 C 208.875 478.390625 208.558594 474.160156 205.257812 471.15625 C 201.878906 468.085938 195.792969 469.847656 193.207031 473.101562 C 190.121094 476.988281 191.40625 483.035156 195.503906 485.699219 C 200.636719 489.042969 205.542969 486.144531 207.433594 481.746094 " fill-opacity="1" fill-rule="nonzero"/><path fill="#a6a6a6" d="M 244.644531 474.558594 C 244.847656 474.0625 245.164062 473.636719 245.652344 473.375 C 246.339844 473 247.164062 472.953125 247.949219 473.023438 C 253.894531 473.542969 251.972656 482.097656 247.207031 481.875 C 245.160156 481.777344 244.476562 479.300781 244.351562 477.582031 C 244.285156 476.683594 244.261719 475.492188 244.644531 474.558594 Z M 245.308594 485.765625 C 253.175781 488.277344 259.007812 476.785156 253.589844 471.234375 C 251.726562 469.320312 248.953125 468.105469 246.265625 468.546875 C 243.386719 469.019531 241.246094 471.050781 240.554688 473.84375 C 239.515625 478.027344 240.609375 484.261719 245.308594 485.765625 " fill-opacity="1" fill-rule="nonzero"/><path fill="#a6a6a6" d="M 210.558594 530.820312 C 207.484375 531.671875 205.902344 528.203125 206.757812 525.664062 C 207.6875 522.917969 210.640625 521.457031 213.246094 520.59375 C 214.339844 521.191406 215.210938 522.195312 215.546875 523.605469 C 216.308594 526.761719 213.523438 529.996094 210.558594 530.820312 Z M 206.425781 517.140625 C 203.015625 520.5625 201.65625 527.125 203.945312 531.117188 C 205.683594 534.140625 209.125 535.808594 212.5 534.515625 C 217.113281 532.742188 219.875 527.757812 219.066406 522.898438 C 218.351562 518.609375 212.921875 513.265625 208.378906 515.671875 C 207.671875 516.046875 207.015625 516.546875 206.425781 517.140625 " fill-opacity="1" fill-rule="nonzero"/></svg>