<svg xmlns="http://www.w3.org/2000/svg" xmlns:xlink="http://www.w3.org/1999/xlink" width="793" zoomAndPan="magnify" viewBox="0 0 595.5 842.249979" height="1122" preserveAspectRatio="xMidYMid meet" version="1.0"><defs><clipPath id="9db42d1d3c"><path d="M 139 206 L 478 206 L 478 557.539062 L 139 557.539062 Z M 139 206 " clip-rule="nonzero"/></clipPath></defs><g clip-path="url(#9db42d1d3c)"><path fill="#a6a6a6" d="M 477.128906 492.882812 C 476.214844 491.191406 474.789062 489.628906 473.667969 488.074219 C 467.65625 479.71875 461.640625 471.363281 455.625 463.007812 C 451.039062 456.632812 446.449219 450.253906 441.859375 443.878906 C 439.40625 440.46875 435.15625 440.511719 432.699219 443.878906 C 424.269531 455.414062 415.84375 466.949219 407.417969 478.480469 L 407.417969 417.515625 C 410.136719 421.273438 412.859375 425.027344 415.578125 428.78125 C 416.230469 429.679688 416.882812 430.582031 417.535156 431.480469 C 419.230469 433.820312 422.128906 434.898438 424.796875 433.382812 C 427.101562 432.074219 428.375 428.441406 426.699219 426.125 C 414.027344 408.640625 401.355469 391.15625 388.6875 373.671875 C 368.417969 345.703125 348.144531 317.730469 327.875 289.757812 L 314.101562 270.753906 L 314.101562 243.890625 L 329.136719 243.890625 C 335.964844 243.890625 335.976562 233.28125 329.136719 233.28125 L 314.101562 233.28125 L 314.101562 211.871094 C 314.101562 205.042969 303.492188 205.03125 303.492188 211.871094 L 303.492188 233.28125 L 288.457031 233.28125 C 281.628906 233.28125 281.617188 243.890625 288.457031 243.890625 L 303.492188 243.890625 L 303.492188 271.871094 C 293.597656 285.414062 283.703125 298.957031 273.808594 312.5 C 266.925781 321.917969 260.046875 331.335938 253.164062 340.757812 C 237.089844 362.59375 221.011719 384.429688 204.9375 406.265625 L 190.894531 425.335938 C 189.183594 427.660156 190.527344 431.234375 192.800781 432.59375 C 195.476562 434.199219 198.367188 432.988281 200.058594 430.691406 C 200.710938 429.808594 201.359375 428.921875 202.011719 428.035156 L 210.179688 416.945312 L 210.179688 479.664062 C 206.179688 474.113281 202.183594 468.558594 198.1875 463.007812 C 193.601562 456.632812 189.011719 450.253906 184.421875 443.878906 C 181.96875 440.46875 177.71875 440.511719 175.257812 443.878906 C 164.992188 457.929688 154.726562 471.980469 144.460938 486.03125 C 142.992188 488.042969 141.269531 490.015625 139.988281 492.15625 C 138.847656 494.0625 139.105469 496.277344 139.105469 498.410156 L 139.105469 552.105469 C 139.105469 554.976562 141.535156 557.402344 144.410156 557.410156 L 206.347656 557.523438 L 215.109375 557.539062 C 215.835938 557.539062 216.484375 557.414062 217.054688 557.199219 C 237.664062 557.238281 258.269531 557.273438 278.878906 557.3125 C 312.265625 557.375 345.65625 557.433594 379.046875 557.496094 L 402.109375 557.539062 C 402.550781 557.539062 402.964844 557.492188 403.347656 557.410156 C 423.496094 557.449219 443.640625 557.484375 463.789062 557.523438 L 472.546875 557.539062 C 474.21875 557.542969 475.480469 556.90625 476.335938 555.945312 C 477.25 555.09375 477.851562 553.859375 477.851562 552.234375 L 477.851562 500.5 C 477.851562 498.125 478.296875 495.046875 477.128906 492.882812 Z M 149.71875 496.734375 C 159.746094 483.007812 169.777344 469.28125 179.804688 455.550781 L 206.121094 492.117188 C 207.351562 493.824219 208.578125 495.527344 209.804688 497.230469 L 209.804688 546.917969 C 190.925781 546.886719 172.046875 546.851562 153.171875 546.816406 C 152.019531 546.8125 150.867188 546.8125 149.71875 546.808594 Z M 293.144531 428.355469 C 297.144531 424.722656 302.386719 422.566406 307.96875 422.390625 C 314.390625 422.300781 320.148438 424.578125 324.390625 428.464844 C 328.898438 432.59375 331.695312 438.546875 331.734375 445.421875 C 331.769531 451.667969 331.734375 457.917969 331.734375 464.164062 L 331.734375 543.929688 C 324.441406 544.007812 317.148438 544.085938 309.855469 544.132812 C 303.484375 544.171875 297.113281 544.203125 290.742188 544.175781 C 289.113281 544.171875 287.488281 544.15625 285.859375 544.132812 L 285.859375 446.71875 C 285.859375 442.871094 286.214844 439.117188 287.855469 435.554688 C 289.140625 432.757812 290.960938 430.339844 293.144531 428.355469 Z M 342.34375 546.820312 L 342.34375 499.492188 C 342.34375 481.386719 342.539062 463.269531 342.34375 445.167969 C 342.28125 439.054688 340.632812 433.382812 337.804688 428.511719 C 331.882812 418.296875 320.75 411.597656 307.96875 411.78125 C 296.21875 412.152344 285.589844 418.324219 279.761719 428.308594 C 279.019531 429.582031 278.347656 430.917969 277.769531 432.3125 C 275.546875 437.664062 275.25 443.160156 275.25 448.832031 L 275.25 540.246094 C 275.25 542.375 275.148438 544.546875 275.164062 546.695312 C 262.960938 546.675781 250.753906 546.652344 238.550781 546.628906 L 220.789062 546.597656 L 220.789062 402.964844 C 231.082031 388.875 241.378906 374.78125 251.671875 360.691406 C 255.222656 355.832031 258.773438 350.972656 262.324219 346.113281 C 275.566406 327.992188 288.804688 309.871094 302.042969 291.75 C 304.355469 288.585938 306.664062 285.425781 308.976562 282.261719 L 309.152344 282.507812 C 318.078125 294.910156 327.007812 307.316406 335.9375 319.722656 C 352.65625 342.953125 369.375 366.183594 386.097656 389.417969 C 389.664062 394.378906 393.234375 399.335938 396.804688 404.296875 L 396.804688 493.644531 C 396.398438 495.167969 396.542969 496.8125 396.542969 498.410156 L 396.542969 546.917969 Z M 407.15625 546.808594 L 407.15625 496.734375 C 407.242188 496.617188 407.328125 496.496094 407.417969 496.378906 C 417.359375 482.769531 427.300781 469.160156 437.246094 455.550781 L 463.5625 492.117188 L 467.242188 497.230469 L 467.242188 546.917969 C 448.363281 546.886719 429.488281 546.851562 410.609375 546.816406 L 407.417969 546.808594 Z M 407.15625 546.808594 " fill-opacity="1" fill-rule="nonzero"/></g></svg>