<svg preserveAspectRatio="xMidYMid meet" data-bbox="45.736 20.13 108.371 160.704" viewBox="45.736 20.13 108.371 160.704" height="200" width="200" xmlns="http://www.w3.org/2000/svg" data-type="color" role="presentation" aria-hidden="true" aria-label=""><defs><style>#comp-l2ok4l8y svg [data-color="1"] {fill: #E9E0D5;}</style></defs>
    <g>
        <path d="M146.746 170.984v-8.849h-2.976v-45.223h2.181v-6.624h-2.181V76.982h2.181v-5.624h2.877v-7.187h-3.439c-.24-24.324-20.093-44.041-44.472-44.041-11.882 0-23.054 4.627-31.456 13.029-4.045 4.045-7.202 9.29-7.723 10.425l-.024-.012c-.052.106-5.127 10.563-5.274 20.598h-3.867v7.187h2.878v5.624h2.18v33.307h-2.18v6.624h2.18v45.223h-4.537v8.849h-7.358v9.85h108.371v-9.85h-7.361zm-1.795-59.695v4.624h-2.181v46.117h-5.802v-46.117h-2.18v-4.624h2.18V76.982h5.802v34.307h2.181zm-15.556 50.826V75.468h-27.979v-.281h-1v.281H72.438v86.647h1V76.468h26.978v85.667H65.432v-45.223h2.181v-6.624h-2.181V76.982h2.181v-5.624h2.877v-7.187h-2.635c.24-18.032 14.975-32.63 33.063-32.63 18.087 0 32.823 14.598 33.062 32.63h-3.068v7.187h2.878v5.624h2.18v33.307h-2.18v6.624h2.18v45.223h-34.553V76.468h26.979v85.647h.999zm15.556-86.133h-10.163v-4.624h10.162v4.624zm2.877-10.811v5.187h-15.917v-5.187h15.917zM62.604 44.028c.03-.056 3.024-5.621 7.563-10.161 8.214-8.213 19.134-12.736 30.749-12.736 23.81 0 43.212 19.236 43.48 42.984h-9.411c-.269-18.558-15.448-33.574-34.069-33.574s-33.802 15.016-34.07 33.574h-9.41c.168-9.782 5.125-19.997 5.168-20.087zm-9.032 26.33v-5.187h15.917v5.187H53.572zm2.878 5.624v-4.624h10.162v4.624H56.45zm0 39.931v-4.624h2.18V76.982h5.802v34.307h2.181v4.624h-2.181v46.117H58.63v-46.117h-2.18zm-2.357 47.223h91.653v7.849H54.093v-7.849zm99.012 16.698H46.734v-7.85h106.37v7.85z" fill="#3C3C3B" data-color="1"></path>
        <path d="M100.492 37.411c-14.842 0-26.917 12.075-26.917 26.917v.5h53.833v-.5c0-14.842-12.074-26.917-26.916-26.917zM74.58 63.828c.268-14.06 11.789-25.417 25.912-25.417s25.644 11.356 25.911 25.417H74.58z" fill="#3C3C3B" data-color="1"></path>
        <path fill="#3C3C3B" d="M126.967 69.689v1H73.646v-1h53.321z" data-color="1"></path>
    </g>
</svg>