<svg xmlns="http://www.w3.org/2000/svg" xmlns:xlink="http://www.w3.org/1999/xlink" width="500" zoomAndPan="magnify" viewBox="0 0 375 374.999991" height="500" preserveAspectRatio="xMidYMid meet" version="1.0"><defs><g/></defs><path stroke-linecap="butt" transform="matrix(0, -0.855544, 0.855544, 0, 182.585105, 231.183251)" fill="none" stroke-linejoin="miter" d="M -0.000400366 0.498647 L 159.122634 0.498647 " stroke="#846737" stroke-width="1" stroke-opacity="1" stroke-miterlimit="4"/><g fill="#846737" fill-opacity="1"><g transform="translate(79.026357, 224.338103)"><g><path d="M 3.152344 -18.386719 C 3.152344 -7.460938 10.085938 2.101562 22.273438 2.101562 C 43.183594 2.101562 55.476562 -16.390625 55.476562 -41.921875 C 55.476562 -46.964844 55.265625 -51.167969 54.847656 -54.53125 L 67.875 -20.171875 C 71.867188 -9.5625 72.394531 -1.050781 57.578125 -1.050781 L 57.578125 0 L 92.039062 0 L 92.039062 -1.050781 C 85.632812 -1.050781 82.269531 -6.828125 77.644531 -18.386719 L 44.023438 -107.171875 L 42.972656 -107.171875 C 36.355469 -89.730469 32.464844 -79.328125 26.058594 -62.410156 C 25.007812 -59.679688 25.53125 -56.84375 28.472656 -56.84375 C 34.460938 -56.84375 37.613281 -67.875 42.65625 -67.875 C 44.023438 -67.875 45.179688 -67.035156 45.179688 -65.039062 C 45.179688 -54.109375 3.152344 -44.234375 3.152344 -18.386719 Z M 12.082031 -20.382812 C 12.082031 -46.335938 46.335938 -50.75 46.335938 -64.828125 C 46.335938 -67.558594 44.863281 -68.925781 42.867188 -68.925781 C 37.300781 -68.925781 33.410156 -57.894531 28.578125 -57.894531 C 26.898438 -57.894531 26.058594 -59.152344 27.421875 -62.832031 L 39.507812 -94.984375 L 52.21875 -61.464844 C 54.109375 -55.265625 54.425781 -49.488281 54.425781 -41.710938 C 54.425781 -24.480469 46.125 -2.941406 28.578125 -2.941406 C 18.28125 -2.941406 12.082031 -10.507812 12.082031 -20.382812 Z M 12.082031 -20.382812 "/></g></g></g><g fill="#846737" fill-opacity="1"><g transform="translate(201.843244, 224.338103)"><g><path d="M 3.152344 0 L 11.558594 0 C 22.589844 0 31.625 2.101562 40.871094 2.101562 C 73.234375 2.101562 88.574219 -23.746094 88.574219 -52.535156 C 88.574219 -81.324219 73.234375 -107.171875 40.871094 -107.171875 C 31.625 -107.171875 22.589844 -105.070312 11.558594 -105.070312 L 3.152344 -105.070312 L 3.152344 -104.019531 C 12.1875 -104.019531 12.820312 -96.558594 12.820312 -75.859375 L 12.820312 -29.210938 C 12.820312 -8.511719 12.1875 -1.050781 3.152344 -1.050781 Z M 21.75 -102.757812 C 27.84375 -104.648438 33.9375 -105.699219 40.765625 -105.699219 C 66.71875 -105.699219 79.539062 -81.21875 79.539062 -52.535156 C 79.539062 -23.851562 66.71875 0.628906 40.765625 0.628906 C 33.9375 0.628906 27.84375 -0.421875 21.75 -2.3125 Z M 21.75 -102.757812 "/></g></g></g><g fill="#846737" fill-opacity="1"><g transform="translate(79.642889, 256.313338)"><g><path d="M -0.347656 0 L 1.574219 0 L 1.574219 -0.230469 C 1.011719 -0.363281 0.910156 -0.84375 1.359375 -1.957031 L 2.320312 -4.324219 L 6.746094 -4.324219 L 7.738281 -1.9375 C 8.203125 -0.84375 8.433594 -0.414062 7.886719 -0.230469 L 7.886719 0 L 10.90625 0 L 10.90625 -0.230469 C 10.523438 -0.414062 10.09375 -0.84375 9.628906 -1.9375 L 5.519531 -11.734375 L 3.894531 -11.003906 L 4.109375 -10.539062 C 4.257812 -10.242188 4.277344 -9.976562 4.144531 -9.644531 L 1.042969 -1.957031 C 0.597656 -0.84375 0.148438 -0.414062 -0.347656 -0.230469 Z M 2.417969 -4.589844 L 4.492188 -9.710938 L 6.628906 -4.589844 Z M 2.417969 -4.589844 "/></g></g></g><g fill="#846737" fill-opacity="1"><g transform="translate(95.579644, 256.313338)"><g><path d="M 9.511719 0.132812 L 9.726562 0.132812 L 9.726562 -9.496094 C 9.726562 -10.6875 9.84375 -11.1875 10.390625 -11.367188 L 10.390625 -11.601562 L 8.152344 -11.601562 L 8.152344 -11.367188 C 9.015625 -11.101562 9.414062 -10.523438 9.414062 -8.5 L 9.414062 -2.882812 L 2.453125 -11.601562 L 0.578125 -11.601562 L 0.578125 -11.367188 C 1.292969 -11.1875 1.441406 -10.6875 1.441406 -9.496094 L 1.441406 -2.105469 C 1.441406 -0.910156 1.324219 -0.414062 0.777344 -0.230469 L 0.777344 0 L 3 0 L 3 -0.230469 C 2.136719 -0.496094 1.738281 -1.078125 1.738281 -3.097656 L 1.738281 -9.679688 Z M 9.511719 0.132812 "/></g></g></g><g fill="#846737" fill-opacity="1"><g transform="translate(111.831092, 256.313338)"><g><path d="M 0.777344 0 L 5.285156 0 C 8.933594 0 11.285156 -2.4375 11.269531 -6.03125 C 11.253906 -8.46875 9.695312 -11.601562 4.921875 -11.601562 L 0.777344 -11.601562 L 0.777344 -11.367188 C 1.324219 -11.1875 1.441406 -10.6875 1.441406 -9.496094 L 1.441406 -2.105469 C 1.441406 -0.910156 1.324219 -0.414062 0.777344 -0.230469 Z M 3.199219 -1.476562 L 3.199219 -11.335938 L 3.859375 -11.335938 C 7.558594 -11.335938 9.3125 -8.617188 9.3125 -5.21875 C 9.3125 -1.671875 7.839844 -0.265625 5.171875 -0.265625 L 4.277344 -0.265625 C 3.363281 -0.265625 3.199219 -0.695312 3.199219 -1.476562 Z M 3.199219 -1.476562 "/></g></g></g><g fill="#846737" fill-opacity="1"><g transform="translate(129.225375, 256.313338)"><g><path d="M 9.214844 0.117188 C 9.496094 0.117188 10.027344 0.0976562 10.40625 0 L 10.40625 -0.230469 C 10.324219 -0.214844 10.242188 -0.214844 10.160156 -0.214844 C 9.546875 -0.214844 9.363281 -0.613281 8.484375 -2.816406 C 7.605469 -5.019531 7.242188 -5.800781 5.371094 -6.015625 C 7.574219 -6.28125 8.617188 -7.425781 8.617188 -8.949219 C 8.617188 -10.292969 7.871094 -11.601562 4.257812 -11.601562 L 0.777344 -11.601562 L 0.777344 -11.367188 C 1.324219 -11.1875 1.441406 -10.6875 1.441406 -9.496094 L 1.441406 -2.105469 C 1.441406 -0.910156 1.324219 -0.414062 0.777344 -0.230469 L 0.777344 0 L 3.859375 0 L 3.859375 -0.230469 C 3.3125 -0.414062 3.199219 -0.910156 3.199219 -2.105469 L 3.199219 -5.949219 L 4.175781 -5.949219 C 5.632812 -5.949219 5.71875 -5.136719 6.710938 -2.71875 C 7.507812 -0.777344 7.839844 0.117188 9.214844 0.117188 Z M 3.199219 -6.214844 L 3.199219 -11.285156 C 3.445312 -11.320312 3.695312 -11.335938 3.925781 -11.335938 C 6 -11.335938 6.859375 -9.894531 6.859375 -8.550781 C 6.859375 -7.273438 6.148438 -6.214844 4.257812 -6.214844 Z M 3.199219 -6.214844 "/></g></g></g><g fill="#846737" fill-opacity="1"><g transform="translate(144.748065, 256.313338)"><g><path d="M 0.777344 0 L 9.164062 0 L 9.28125 -2.417969 L 9.066406 -2.453125 C 8.433594 -0.761719 7.292969 -0.265625 5.617188 -0.265625 L 4.027344 -0.265625 C 3.496094 -0.265625 3.199219 -0.5625 3.199219 -1.09375 L 3.199219 -6.097656 L 4.789062 -6.097656 C 6.8125 -6.097656 7.390625 -5.699219 7.65625 -4.839844 L 7.886719 -4.839844 L 7.886719 -7.625 L 7.65625 -7.625 C 7.390625 -6.761719 6.8125 -6.363281 4.789062 -6.363281 L 3.199219 -6.363281 L 3.199219 -11.335938 L 5.136719 -11.335938 C 6.992188 -11.335938 8.039062 -10.839844 8.699219 -9.214844 L 8.914062 -9.265625 L 8.734375 -11.601562 L 0.777344 -11.601562 L 0.777344 -11.367188 C 1.324219 -11.1875 1.441406 -10.6875 1.441406 -9.496094 L 1.441406 -2.105469 C 1.441406 -0.910156 1.324219 -0.414062 0.777344 -0.230469 Z M 0.777344 0 "/></g></g></g><g fill="#846737" fill-opacity="1"><g transform="translate(159.88981, 256.313338)"><g><path d="M -0.347656 0 L 1.574219 0 L 1.574219 -0.230469 C 1.011719 -0.363281 0.910156 -0.84375 1.359375 -1.957031 L 2.320312 -4.324219 L 6.746094 -4.324219 L 7.738281 -1.9375 C 8.203125 -0.84375 8.433594 -0.414062 7.886719 -0.230469 L 7.886719 0 L 10.90625 0 L 10.90625 -0.230469 C 10.523438 -0.414062 10.09375 -0.84375 9.628906 -1.9375 L 5.519531 -11.734375 L 3.894531 -11.003906 L 4.109375 -10.539062 C 4.257812 -10.242188 4.277344 -9.976562 4.144531 -9.644531 L 1.042969 -1.957031 C 0.597656 -0.84375 0.148438 -0.414062 -0.347656 -0.230469 Z M 2.417969 -4.589844 L 4.492188 -9.710938 L 6.628906 -4.589844 Z M 2.417969 -4.589844 "/></g></g></g><g fill="#846737" fill-opacity="1"><g transform="translate(175.826564, 256.313338)"><g/></g></g><g fill="#846737" fill-opacity="1"><g transform="translate(184.426015, 256.313338)"><g><path d="M 10.574219 0.117188 C 12.328125 0.117188 14.070312 -2.054688 14.070312 -3.480469 C 14.070312 -4.539062 13.355469 -5.5 12.394531 -5.917969 L 14.316406 -5.917969 L 14.382812 -6.179688 L 8.253906 -6.179688 L 8.1875 -5.917969 L 11.898438 -5.917969 C 12.460938 -5.917969 12.859375 -4.242188 12.859375 -3.214844 C 12.859375 -1.65625 12.609375 -0.777344 12.03125 -0.777344 C 11.101562 -0.777344 8.816406 -2.71875 6.925781 -4.871094 C 5.402344 -6.644531 4.144531 -8.433594 4.144531 -9.777344 C 4.144531 -10.375 4.558594 -11.402344 5.933594 -11.402344 C 6.777344 -11.402344 7.90625 -11.085938 8.78125 -9.046875 L 8.964844 -9.082031 L 8.78125 -11.1875 C 8.054688 -11.601562 6.992188 -11.714844 6.347656 -11.714844 C 3.53125 -11.714844 2.683594 -9.910156 2.683594 -8.914062 C 2.683594 -8.171875 2.984375 -7.359375 3.464844 -6.511719 C 1.640625 -5.832031 0.496094 -4.691406 0.496094 -3.148438 C 0.496094 -1.640625 1.640625 0.164062 3.796875 0.164062 C 5.21875 0.164062 6.363281 -0.761719 7.078125 -2.039062 C 8.386719 -0.777344 9.679688 0.117188 10.574219 0.117188 Z M 1.9375 -3.84375 C 1.9375 -4.972656 2.453125 -5.832031 3.578125 -6.3125 C 4.125 -5.417969 4.855469 -4.507812 5.617188 -3.613281 C 6.03125 -3.117188 6.464844 -2.652344 6.894531 -2.21875 C 6.464844 -1.523438 5.683594 -0.878906 4.640625 -0.878906 C 2.898438 -0.878906 1.9375 -2.4375 1.9375 -3.84375 Z M 1.9375 -3.84375 "/></g></g></g><g fill="#846737" fill-opacity="1"><g transform="translate(203.956899, 256.313338)"><g/></g></g><g fill="#846737" fill-opacity="1"><g transform="translate(212.556344, 256.313338)"><g><path d="M 0.777344 0 L 5.285156 0 C 8.933594 0 11.285156 -2.4375 11.269531 -6.03125 C 11.253906 -8.46875 9.695312 -11.601562 4.921875 -11.601562 L 0.777344 -11.601562 L 0.777344 -11.367188 C 1.324219 -11.1875 1.441406 -10.6875 1.441406 -9.496094 L 1.441406 -2.105469 C 1.441406 -0.910156 1.324219 -0.414062 0.777344 -0.230469 Z M 3.199219 -1.476562 L 3.199219 -11.335938 L 3.859375 -11.335938 C 7.558594 -11.335938 9.3125 -8.617188 9.3125 -5.21875 C 9.3125 -1.671875 7.839844 -0.265625 5.171875 -0.265625 L 4.277344 -0.265625 C 3.363281 -0.265625 3.199219 -0.695312 3.199219 -1.476562 Z M 3.199219 -1.476562 "/></g></g></g><g fill="#846737" fill-opacity="1"><g transform="translate(229.950633, 256.313338)"><g><path d="M 0.777344 0 L 3.859375 0 L 3.859375 -0.230469 C 3.3125 -0.414062 3.199219 -0.910156 3.199219 -2.105469 L 3.199219 -9.496094 C 3.199219 -10.6875 3.3125 -11.1875 3.859375 -11.367188 L 3.859375 -11.601562 L 0.777344 -11.601562 L 0.777344 -11.367188 C 1.324219 -11.1875 1.441406 -10.6875 1.441406 -9.496094 L 1.441406 -2.105469 C 1.441406 -0.910156 1.324219 -0.414062 0.777344 -0.230469 Z M 0.777344 0 "/></g></g></g><g fill="#846737" fill-opacity="1"><g transform="translate(239.875103, 256.313338)"><g><path d="M 0.777344 0 L 9.164062 0 L 9.28125 -2.417969 L 9.066406 -2.453125 C 8.433594 -0.761719 7.292969 -0.265625 5.617188 -0.265625 L 4.027344 -0.265625 C 3.496094 -0.265625 3.199219 -0.5625 3.199219 -1.09375 L 3.199219 -6.097656 L 4.789062 -6.097656 C 6.8125 -6.097656 7.390625 -5.699219 7.65625 -4.839844 L 7.886719 -4.839844 L 7.886719 -7.625 L 7.65625 -7.625 C 7.390625 -6.761719 6.8125 -6.363281 4.789062 -6.363281 L 3.199219 -6.363281 L 3.199219 -11.335938 L 5.136719 -11.335938 C 6.992188 -11.335938 8.039062 -10.839844 8.699219 -9.214844 L 8.914062 -9.265625 L 8.734375 -11.601562 L 0.777344 -11.601562 L 0.777344 -11.367188 C 1.324219 -11.1875 1.441406 -10.6875 1.441406 -9.496094 L 1.441406 -2.105469 C 1.441406 -0.910156 1.324219 -0.414062 0.777344 -0.230469 Z M 0.777344 0 "/></g></g></g><g fill="#846737" fill-opacity="1"><g transform="translate(255.016854, 256.313338)"><g><path d="M 7.140625 0.164062 C 8.519531 0.164062 10.554688 -0.515625 11.800781 -2.136719 L 11.800781 -5.1875 L 9.230469 -5.1875 L 9.230469 -4.953125 C 9.941406 -4.757812 10.09375 -4.292969 10.09375 -3 L 10.09375 -1.492188 C 9.679688 -0.664062 8.734375 -0.230469 7.6875 -0.230469 C 4.507812 -0.230469 2.601562 -3.8125 2.636719 -6.945312 C 2.667969 -9.941406 4.34375 -11.402344 6.511719 -11.402344 C 8.171875 -11.402344 9.910156 -10.375 10.589844 -8.667969 L 10.789062 -8.71875 L 10.722656 -10.90625 C 9.859375 -11.484375 8.152344 -11.714844 7.125 -11.714844 C 3.398438 -11.714844 0.894531 -9.03125 0.894531 -5.851562 C 0.894531 -2.21875 3.332031 0.164062 7.140625 0.164062 Z M 7.140625 0.164062 "/></g></g></g><g fill="#846737" fill-opacity="1"><g transform="translate(272.792076, 256.313338)"><g><path d="M 6.828125 0.164062 C 9.613281 0.164062 12.742188 -1.707031 12.742188 -5.75 C 12.742188 -9.8125 9.628906 -11.734375 6.828125 -11.734375 C 3.3125 -11.734375 0.894531 -9.132812 0.894531 -5.851562 C 0.894531 -1.691406 4.011719 0.164062 6.828125 0.164062 Z M 2.617188 -6.859375 C 2.4375 -9.546875 3.710938 -11.300781 5.964844 -11.300781 C 8.832031 -11.300781 10.820312 -7.972656 11.070312 -4.441406 C 11.21875 -2.253906 10.308594 -0.347656 7.773438 -0.347656 C 4.953125 -0.347656 2.851562 -3.546875 2.617188 -6.859375 Z M 2.617188 -6.859375 "/></g></g></g></svg>